<svg viewBox="0 0 350 226.86412765050733" preserveAspectRatio="xMidYMid meet" class="css-8aabad" id="hghadffe"><defs id="SvgjsDefs5738"></defs><g id="SvgjsG5739" featurekey="symbolFeature-0" transform="matrix(1.6000108817704362,0,0,1.6000108817704362,94.99945362264427,-9.976145881816649)" fill="#111"> <path xmlns="http://www.w3.org/2000/svg" d="m76.57 50c0-9.4922-5.0625-18.266-13.285-23.012-8.2188-4.7461-18.352-4.7461-26.57 0-8.2227 4.7461-13.285 13.52-13.285 23.012 1.4844 35.258 51.66 35.246 53.141 0zm-25.008 14.941v2.2539c-0.011719 0.85156-0.70703 1.5391-1.5625 1.5391s-1.5508-0.6875-1.5625-1.5391v-2.2539h-8.4727c-0.41406 0.003906-0.8125-0.16016-1.1094-0.45312-0.29297-0.29297-0.45703-0.69141-0.45703-1.1094 0-0.41406 0.16406-0.8125 0.45703-1.1055 0.29688-0.29297 0.69531-0.45703 1.1094-0.45703h1.7812c-0.074219-0.03125 0.17578-23.832-0.10938-23.633-0.85156-0.011719-1.5391-0.71094-1.5391-1.5625 0-0.85547 0.6875-1.5508 1.5391-1.5625h6.8008v-2.2539c0-0.86328 0.69922-1.5625 1.5625-1.5625s1.5625 0.69922 1.5625 1.5625v2.2539h1.7812c3.5625 0.035156 6.6992 2.3477 7.7891 5.7344 1.0938 3.3906-0.10547 7.0977-2.9727 9.207 2.1562 1.5469 3.4336 4.0352 3.4375 6.6914-0.0625 5.5-4.7812 8.8203-10.035 8.25z"></path> <path xmlns="http://www.w3.org/2000/svg" d="m57.816 18.738v-1.5625c0.003906-1.7227 1.4023-3.1211 3.125-3.125h20.508c0.78516 3.0469 3.7148 5.0312 6.8398 4.6367 3.1211-0.39844 5.4609-3.0547 5.4609-6.1992 0-3.1484-2.3398-5.8047-5.4609-6.2031-3.125-0.39453-6.0547 1.5898-6.8398 4.6367h-20.508c-4.3359 0.078125-6.6914 3.7266-6.2539 7.8164 0.015625 0.85547 0.71094 1.5391 1.5664 1.5391 0.85156 0 1.5469-0.68359 1.5625-1.5391z"></path> <path xmlns="http://www.w3.org/2000/svg" d="m18.551 14.051h20.508c1.7227 0.003907 3.1211 1.4023 3.125 3.125v1.5625c0.019531 0.85156 0.71094 1.5352 1.5625 1.5352 0.85156 0 1.5469-0.68359 1.5664-1.5352v-1.5625c0-1.6602-0.66016-3.25-1.832-4.4219s-2.7617-1.832-4.4219-1.832h-20.508c-0.78516-3.0469-3.7148-5.0312-6.8398-4.6367-3.1211 0.39844-5.4609 3.0547-5.4609 6.2031 0 3.1445 2.3398 5.8008 5.4609 6.1992 3.125 0.39453 6.0547-1.5898 6.8398-4.6367z"></path> <path xmlns="http://www.w3.org/2000/svg" d="m81.449 85.949h-20.508c-1.7227-0.003907-3.1211-1.4023-3.125-3.125v-1.5625c-0.019531-0.85156-0.71094-1.5352-1.5625-1.5352-0.85156 0-1.5469 0.68359-1.5664 1.5352v1.5625c0 1.6602 0.66016 3.25 1.832 4.4219s2.7617 1.832 4.4219 1.832h20.508c0.78516 3.0469 3.7148 5.0312 6.8398 4.6367 3.1211-0.39844 5.4609-3.0547 5.4609-6.2031 0-3.1445-2.3398-5.8008-5.4609-6.1992-3.125-0.39453-6.0547 1.5898-6.8398 4.6367z"></path> <path xmlns="http://www.w3.org/2000/svg" d="m42.184 81.262v1.5625c-0.003906 1.7227-1.4023 3.1211-3.125 3.125h-20.508c-0.78516-3.0469-3.7148-5.0312-6.8398-4.6367-3.1211 0.39844-5.4609 3.0547-5.4609 6.1992 0 3.1484 2.3398 5.8047 5.4609 6.2031 3.125 0.39453 6.0547-1.5898 6.8398-4.6367h20.508c4.3359-0.078125 6.6914-3.7266 6.2539-7.8164-0.015625-0.85547-0.71094-1.5391-1.5664-1.5391-0.85156 0-1.5469 0.68359-1.5625 1.5391z"></path> <path xmlns="http://www.w3.org/2000/svg" d="m58.473 43.309c-0.003906-2.8281-2.2969-5.125-5.1289-5.125h-8.4727v10.254h8.4727c2.832-0.003906 5.125-2.2969 5.1289-5.1289z"></path> <path xmlns="http://www.w3.org/2000/svg" d="m53.344 51.562h-8.4727v10.254h8.4727c2.8281-0.003906 5.1172-2.2969 5.1172-5.125s-2.2891-5.125-5.1172-5.1289z"></path></g><g id="SvgjsG5740" featurekey="K5GtsI-0" transform="matrix(2.896391645245563,0,0,2.896391645245563,5.17915185435813e-7,142.73750154052638)" fill="#111"><path d="M9.74 13.059999999999999 c0.46 -0.7 0.7 -1.58 0.7 -2.6 c0 -2.78 -1.64 -4.36 -4.46 -4.36 l-4.62 0 l0 6.02 l4.7 0 c1.06 0 1.7 -0.6 1.7 -1.66 c0 -0.56 -0.2 -1.02 -0.6 -1.4 c-0.26 -0.24 -0.7 -0.38 -1.1 -0.38 l-3.34 0 l0 2.1 l0.72 0 l0 -1.4 l2.62 0 c0.58 0 0.98 0.38 0.98 1.08 c0 0.62 -0.32 0.94 -0.98 0.94 l-4 0 l0 -4.58 l3.82 0 c2.48 0 3.86 1.26 3.86 3.64 c0 0.78 -0.16 1.46 -0.5 2.08 l-0.2 0.32 l-0.22 0.22 l0.26 0.26 l0.38 0.44 c0.24 0.3 0.36 0.92 0.36 1.88 c0 2.34 -1.4 3.6 -3.94 3.6 l-5.16 0 l0 -13.18 l-0.72 0 l0 13.9 l5.88 0 c2.9 0 4.66 -1.6 4.66 -4.32 c0 -1.04 -0.26 -1.9 -0.8 -2.6 z M6.36 18.68 c0.7 0 1.36 -0.26 1.98 -0.8 c0.58 -0.58 0.88 -1.28 0.88 -2.08 c0 -1 -0.32 -1.78 -0.98 -2.36 l-0.52 -0.38 c0.9 -0.5 1.44 -1.46 1.44 -2.72 c0 -0.54 -0.12 -1.06 -0.36 -1.52 c-0.48 -0.92 -1.34 -1.42 -2.44 -1.42 l-3.62 0 l0 0.72 l3.62 0 c0.34 0 0.66 0.1 1 0.3 c0.64 0.4 1.06 1.12 1.06 1.92 c0 1.38 -0.84 2.36 -2.12 2.36 l-4.92 0 l0 0.72 l4.92 0 c1.34 0 2.2 0.92 2.2 2.38 c0 0.8 -0.34 1.42 -1.04 1.84 c-0.34 0.2 -0.7 0.3 -1.1 0.3 l-4.3 0 l0 -3.16 l4 0 c0.7 0 1.04 0.32 1.04 0.94 c0 0.64 -0.34 0.96 -1.04 0.96 l-2.62 0 l0 -1.32 l-0.72 0 l0 2.04 l3.34 0 c0.78 0 1.3 -0.28 1.58 -0.86 c0.12 -0.22 0.18 -0.5 0.18 -0.82 c0 -1.04 -0.7 -1.68 -1.76 -1.68 l-4.7 0 l0 4.64 l5 0 z M13.14 6 l2.1 0 l0 12.66 l-0.72 0 l0 -11.94 l-0.66 0 l0 12.56 l2.02 0 l0 -13.28 l0.72 0 l0 14 l-3.46 0 l0 -14 z M22.520000000000003 8.6 l4.78 0 l0 -1.9 l-8.5 0 l0 0.62 l7.82 0 l0 0.72 l-8.54 0 l0 -2.06 l9.94 0 l0 3.34 l-4.78 0 l0 9.36 l-0.72 0 l0 -10.08 z M21.180000000000003 9.32 l-3.1 0 l0 -0.72 l3.82 0 l0 10.66 l2 0 l0 -9.32 l0.72 0 l0 10.06 l-3.44 0 l0 -10.68 z M38.08 15.440000000000001 c-1.26 0.82 -1.88 1.06 -2.74 1.06 c-0.6 0 -1.16 -0.16 -1.7 -0.48 c-1.06 -0.64 -1.78 -1.8 -1.78 -3 c0 -0.64 0.16 -1.24 0.48 -1.78 c0.62 -1.08 1.8 -1.72 3 -1.72 c0.76 0 1.44 0.22 2.02 0.64 c0.1 0.06 0.22 0.14 0.36 0.28 l0.3 0.22 l1.34 -1.58 l-0.22 -0.22 c-0.14 -0.14 -0.32 -0.26 -0.54 -0.4 c-0.94 -0.72 -2.04 -1.08 -3.26 -1.08 c-1.5 0 -2.88 0.58 -3.98 1.64 c-1.06 1.12 -1.66 2.5 -1.66 4 s0.6 2.92 1.66 3.98 s2.48 1.66 3.98 1.66 c1.08 0 2.08 -0.3 3.02 -0.9 l-0.4 -0.6 c-0.82 0.54 -1.68 0.8 -2.62 0.8 c-1.3 0 -2.54 -0.52 -3.48 -1.46 s-1.44 -2.18 -1.44 -3.48 s0.5 -2.52 1.44 -3.46 c0.94 -0.96 2.18 -1.46 3.48 -1.46 c0.98 0 1.92 0.3 2.86 0.92 l0.16 0.14 l-0.44 0.5 c-0.06 -0.02 -0.1 -0.04 -0.14 -0.08 c-0.74 -0.5 -1.56 -0.76 -2.44 -0.76 c-0.78 0 -1.48 0.18 -2.1 0.54 c-1.26 0.74 -2.1 2.2 -2.1 3.66 c0 0.7 0.2 1.4 0.58 2.06 c0.78 1.34 2.2 2.16 3.62 2.16 c0.94 0 1.7 -0.28 2.84 -1 l1.12 1.66 c-1.46 0.96 -2.6 1.36 -3.96 1.36 c-1.12 0 -2.16 -0.28 -3.12 -0.84 c-1.94 -1.12 -3.14 -3.16 -3.14 -5.4 c0 -1.12 0.28 -2.16 0.84 -3.14 c1.12 -1.92 3.18 -3.12 5.42 -3.12 c1.58 0 3.08 0.58 4.22 1.64 l0.12 0.1 l0.16 0.16 l0.5 -0.52 l-0.28 -0.28 c-1.28 -1.14 -2.96 -1.8 -4.72 -1.8 c-1.26 0 -2.42 0.3 -3.48 0.92 c-2.12 1.22 -3.5 3.56 -3.5 6.04 c0 1.22 0.32 2.38 0.96 3.46 c1.26 2.16 3.52 3.52 6.02 3.52 c1.58 0 2.9 -0.5 4.68 -1.72 l0.28 -0.18 l-1.9 -2.86 z M47.46 20 c-1.22 0 -2.38 -0.32 -3.48 -0.96 c-2.2 -1.26 -3.56 -3.58 -3.56 -6.06 c0 -1.24 0.32 -2.4 0.96 -3.5 c1.26 -2.16 3.62 -3.52 6.08 -3.52 c1.22 0 2.4 0.32 3.5 0.94 c2.2 1.28 3.52 3.66 3.52 6.08 c0 1.22 -0.32 2.36 -0.94 3.46 c-1.28 2.2 -3.6 3.56 -6.08 3.56 z M47.46 6.66 c-1.14 0 -2.2 0.28 -3.16 0.84 c-1.94 1.12 -3.14 3.18 -3.14 5.48 c0 1.14 0.28 2.2 0.84 3.16 c1.12 1.94 3.16 3.14 5.46 3.14 c1.14 0 2.2 -0.28 3.18 -0.84 c1.94 -1.12 3.14 -3.16 3.14 -5.46 c0 -1.14 -0.28 -2.2 -0.84 -3.18 c-1.12 -1.94 -3.24 -3.14 -5.48 -3.14 z M47.46 18.64 c-1 0 -1.94 -0.26 -2.84 -0.76 c-1.78 -1.02 -2.88 -2.88 -2.88 -4.9 c0 -1.02 0.26 -1.96 0.76 -2.84 c1.02 -1.76 2.82 -2.8 4.96 -2.8 c1.08 0 2.06 0.24 2.92 0.72 c1.72 0.96 2.72 2.76 2.72 4.92 c0 1.02 -0.24 1.96 -0.72 2.82 c-0.98 1.74 -2.9 2.84 -4.92 2.84 z M47.46 8.04 c-0.9 0 -1.72 0.22 -2.48 0.66 c-1.54 0.88 -2.48 2.46 -2.48 4.28 c0 0.88 0.22 1.7 0.68 2.46 c0.88 1.54 2.44 2.5 4.28 2.5 c0.9 0 1.72 -0.22 2.48 -0.68 c1.5 -0.88 2.46 -2.52 2.46 -4.28 c0 -0.9 -0.22 -1.74 -0.66 -2.5 c-0.88 -1.52 -2.54 -2.44 -4.28 -2.44 z M47.46 17.34 c-0.78 0 -1.52 -0.2 -2.18 -0.58 c-1.34 -0.78 -2.2 -2.26 -2.2 -3.78 c0 -0.78 0.2 -1.52 0.6 -2.2 c0.78 -1.36 2.16 -2.14 3.78 -2.14 c0.78 0 1.5 0.2 2.16 0.58 c1.34 0.78 2.12 2.14 2.12 3.76 c0 0.8 -0.18 1.52 -0.54 2.18 c-0.74 1.32 -2.16 2.18 -3.74 2.18 z M47.46 9.36 c-0.64 0 -1.24 0.16 -1.8 0.48 c-1.12 0.66 -1.84 1.84 -1.84 3.14 c0 0.64 0.16 1.24 0.48 1.78 c0.64 1.12 1.8 1.8 3.16 1.8 c0.66 0 1.28 -0.16 1.82 -0.48 c1.1 -0.64 1.76 -1.82 1.76 -3.1 c0 -0.66 -0.16 -1.26 -0.48 -1.82 c-0.64 -1.12 -1.82 -1.8 -3.1 -1.8 z M55.68000000000001 6 l2.1 0 l0 12.66 l-0.72 0 l0 -11.94 l-0.66 0 l0 12.56 l2.02 0 l0 -13.28 l0.72 0 l0 14 l-3.46 0 l0 -14 z M70.42000000000002 14.3 l-8.18 -8.3 l-1 0 l9.9 10.06 l0 -8.66 l-0.72 0 l0 6.9 z M69.76000000000002 12.7 l0 -6 l2.04 0 l0 12.58 l-0.34 0 l-0.08 -0.08 l-9.16 -9.28 l0 10.08 l2.1 0 l0 -5.9 l-0.74 -0.76 l0 5.94 l-0.64 0 l0 -7.6 l8.3 8.32 l1.28 0 l0 -14 l-3.48 0 l0 5.92 z M61.56000000000001 20 l0 -11.7 l9.58 9.72 l0 -1.06 l-10.28 -10.38 l0 13.42 l0.7 0 z M82.96000000000001 14.14 l-6.96 0 l0 2.1 l6.96 0 l0 -2.1 z M76.72000000000001 15.52 l0 -0.66 l5.62 0 l0 0.66 l-5.62 0 z M95.98000000000002 19.28 l-2.3 0 l-2.76 -5.14 l-1.86 0.02 l0 5.12 l-2.02 0 l0 -13.28 l-0.72 0 l0 14 l3.48 0 l0 -5.14 l0.7 0 l2.74 5.14 l3.94 0 l-2.76 -5.16 l-0.66 0.26 z M91.22000000000001 6.720000000000001 c2.9 0 4.54 1.3 4.54 3.68 c0 2.16 -1.3 3.48 -3.56 3.72 l-0.54 0.06 l2.5 4.62 l0.82 0 l-2.18 -4.06 c2.4 -0.42 3.68 -1.88 3.68 -4.34 c0 -0.82 -0.18 -1.56 -0.52 -2.22 c-0.8 -1.42 -2.44 -2.18 -4.74 -2.18 l-3.54 0 l0 12.78 l0.72 0 l0 -12.06 l2.82 0 z M91.06000000000002 13.52 c2.74 0 4.04 -0.94 4.04 -3.02 c0 -1.98 -1.36 -3.1 -3.54 -3.1 l-2.52 0 l0 2.1 l2.3 0 c1.06 0 1.6 0.3 1.6 0.9 c0 0.7 -0.66 1.04 -2 1.04 l-1.16 0 l0 -1.24 l-0.74 0 l0 1.96 l1.9 0 c1.78 0 2.72 -0.62 2.72 -1.76 c0 -0.36 -0.08 -0.64 -0.26 -0.86 c-0.34 -0.5 -1.02 -0.74 -2.06 -0.74 l-1.56 0 l0 -0.68 l1.78 0 c1.78 0 2.82 0.86 2.82 2.38 c0 1.58 -1.06 2.32 -3.32 2.32 l-2 0 l0 0.7 l2 0 z M98.28000000000002 5.98 l0.74 0 l0 13.28 l1.98 0 l0 -4.82 l2.46 0 c0.9 0 1.64 -0.2 2.26 -0.62 c0.96 -0.58 1.46 -1.76 1.46 -3.3 c0 -2.48 -1.4 -3.8 -3.98 -3.8 l-2.86 0 l0 4.98 l2.56 0 c1.04 0 1.44 -0.32 1.44 -1.18 c0 -0.7 -0.34 -1.04 -1.04 -1.04 l-1.52 0 l0 1.62 l-0.74 0.02 l0 -2.34 l2.26 0 c1.1 0 1.72 0.64 1.72 1.74 c0 1.28 -0.7 1.92 -2.12 1.92 l-3.24 0 l0 -6.46 l3.54 0 c2.9 0 4.68 1.68 4.68 4.54 c0 2.96 -1.62 4.66 -4.42 4.66 l-1.72 0 l0 4.82 l-3.46 0 l0 -14.02 z M99.66000000000003 13.1 l3.36 0 c1.86 0 2.76 -0.8 2.76 -2.48 c0 -1.58 -0.86 -2.5 -2.24 -2.5 l-2.5 0 l0 -0.72 l2.5 0 c0.56 0 1.08 0.12 1.54 0.38 c0.94 0.5 1.42 1.5 1.42 2.84 c0 2.08 -1.16 3.18 -3.48 3.18 l-2.68 0 l0 5 l-0.68 0 l0 -5.7 z M118.58000000000001 15.440000000000001 c-1.26 0.82 -1.88 1.06 -2.74 1.06 c-0.6 0 -1.16 -0.16 -1.7 -0.48 c-1.06 -0.64 -1.78 -1.8 -1.78 -3 c0 -0.64 0.16 -1.24 0.48 -1.78 c0.62 -1.08 1.8 -1.72 3 -1.72 c0.76 0 1.44 0.22 2.02 0.64 c0.1 0.06 0.22 0.14 0.36 0.28 l0.3 0.22 l1.34 -1.58 l-0.22 -0.22 c-0.14 -0.14 -0.32 -0.26 -0.54 -0.4 c-0.94 -0.72 -2.04 -1.08 -3.26 -1.08 c-1.5 0 -2.88 0.58 -3.98 1.64 c-1.06 1.12 -1.66 2.5 -1.66 4 s0.6 2.92 1.66 3.98 s2.48 1.66 3.98 1.66 c1.08 0 2.08 -0.3 3.02 -0.9 l-0.4 -0.6 c-0.82 0.54 -1.68 0.8 -2.62 0.8 c-1.3 0 -2.54 -0.52 -3.48 -1.46 s-1.44 -2.18 -1.44 -3.48 s0.5 -2.52 1.44 -3.46 c0.94 -0.96 2.18 -1.46 3.48 -1.46 c0.98 0 1.92 0.3 2.86 0.92 l0.16 0.14 l-0.44 0.5 c-0.06 -0.02 -0.1 -0.04 -0.14 -0.08 c-0.74 -0.5 -1.56 -0.76 -2.44 -0.76 c-0.78 0 -1.48 0.18 -2.1 0.54 c-1.26 0.74 -2.1 2.2 -2.1 3.66 c0 0.7 0.2 1.4 0.58 2.06 c0.78 1.34 2.2 2.16 3.62 2.16 c0.94 0 1.7 -0.28 2.84 -1 l1.12 1.66 c-1.46 0.96 -2.6 1.36 -3.96 1.36 c-1.12 0 -2.16 -0.28 -3.12 -0.84 c-1.94 -1.12 -3.14 -3.16 -3.14 -5.4 c0 -1.12 0.28 -2.16 0.84 -3.14 c1.12 -1.92 3.18 -3.12 5.42 -3.12 c1.58 0 3.08 0.58 4.22 1.64 l0.12 0.1 l0.16 0.16 l0.5 -0.52 l-0.28 -0.28 c-1.28 -1.14 -2.96 -1.8 -4.72 -1.8 c-1.26 0 -2.42 0.3 -3.48 0.92 c-2.12 1.22 -3.5 3.56 -3.5 6.04 c0 1.22 0.32 2.38 0.96 3.46 c1.26 2.16 3.52 3.52 6.02 3.52 c1.58 0 2.9 -0.5 4.68 -1.72 l0.28 -0.18 l-1.9 -2.86 z"></path></g><g id="SvgjsG5741" featurekey="sloganFeature-0" transform="matrix(0.35669879199261467,0,0,0.35669879199261467,-0.2853591016289871,219.03102250491702)" fill="#111"><path d="M6.3 6 c4.8 0 6.94 3.42 7 6.88 c0.06 3.54 -2.1 7.12 -7 7.12 l-5.5 0 l0 -14 l5.5 0 z M3.42 8.5 l0 8.96 l2.88 0 c3.18 0 4.44 -2.32 4.38 -4.6 c-0.06 -2.18 -1.34 -4.36 -4.38 -4.36 l-2.88 0 z M25.48 17.4 l0 2.6 l-10.48 0 l0 -14 l10.48 0 l0 2.56 l-7.86 0 l0 3.22 l7.58 0 l0 2.46 l-7.58 0 l0 3.16 l7.86 0 z M38.68 8.3 l-2.1 1.08 c-0.48 -0.8 -1.8 -1.56 -3.32 -1.56 c-1.96 0 -2.9 0.82 -2.9 1.86 c0 1.22 1.44 1.56 3.12 1.76 c2.92 0.36 5.64 1.12 5.64 4.46 c0 3.12 -2.76 4.46 -5.88 4.46 c-2.86 0 -5.06 -0.88 -6.1 -3.44 l2.2 -1.14 c0.62 1.54 2.24 2.22 3.94 2.22 c1.66 0 3.22 -0.58 3.22 -2.1 c0 -1.32 -1.38 -1.86 -3.24 -2.06 c-2.86 -0.34 -5.5 -1.1 -5.5 -4.24 c0 -2.88 2.84 -4.06 5.42 -4.08 c2.18 0 4.44 0.62 5.5 2.78 z M43.8 20 l-2.62 0 l0 -14 l2.62 0 l0 14 z M58.31999999999999 7.74 l-1.64 1.68 c-0.94 -0.9 -2.34 -1.4 -3.56 -1.4 c-3 0 -4.82 2.28 -4.82 5.16 c0 2.3 1.34 4.68 4.82 4.68 c1.1 0 2.06 -0.24 3.16 -1.12 l0 -2.48 l-3.58 0 l0 -2.36 l6 0 l0 5.9 c-1.38 1.58 -3.12 2.52 -5.58 2.52 c-5.26 0 -7.4 -3.46 -7.4 -7.14 c0 -3.94 2.46 -7.58 7.4 -7.58 c1.88 0 3.76 0.72 5.2 2.14 z M70.06 14.68 l0 -8.7 l2.64 0 l0 14.02 l-1.64 0 l0 0.02 l-7.36 -9.46 l0 9.44 l-2.64 0 l0 -14 l2.14 0 z M85.56 17.4 l0 2.6 l-10.48 0 l0 -14 l10.48 0 l0 2.56 l-7.86 0 l0 3.22 l7.58 0 l0 2.46 l-7.58 0 l0 3.16 l7.86 0 z M92.92 6 c4.8 0 6.94 3.42 7 6.88 c0.06 3.54 -2.1 7.12 -7 7.12 l-5.5 0 l0 -14 l5.5 0 z M90.04 8.5 l0 8.96 l2.88 0 c3.18 0 4.44 -2.32 4.38 -4.6 c-0.06 -2.18 -1.34 -4.36 -4.38 -4.36 l-2.88 0 z M108.34000000000002 20 l-2.64 0 l0 -13.98 l10.06 0 l0 2.54 l-7.42 0 l0 3.82 l7.02 0 l0 2.44 l-7.02 0 l0 5.18 z M124.58000000000001 5.720000000000001 c4.82 0 7.22 3.7 7.18 7.36 c-0.04 3.62 -2.26 7.24 -7.18 7.24 s-7.2 -3.54 -7.2 -7.22 s2.36 -7.38 7.2 -7.38 z M124.58000000000001 8.12 c-3.3 0 -4.66 2.66 -4.6 5.02 c0.06 2.3 1.3 4.76 4.6 4.76 s4.54 -2.48 4.58 -4.78 c0.04 -2.36 -1.28 -5 -4.58 -5 z M146.12 19.82 l0 0.18 l-3.14 0 l-4.08 -4.68 l-2.54 0 l0 4.68 l-2.64 0 l0 -14.02 c2.22 0 4.44 0.02 6.66 0.02 c3.3 0.02 5.04 2.22 5.04 4.64 c0 1.92 -0.88 3.86 -3.54 4.4 z M140.38 8.46 l-4.02 0 l0 4.48 l4.02 0 c1.68 0 2.4 -1.12 2.4 -2.24 s-0.74 -2.24 -2.4 -2.24 z M156.56 6 c4.8 0 6.94 3.42 7 6.88 c0.06 3.54 -2.1 7.12 -7 7.12 l-5.5 0 l0 -14 l5.5 0 z M153.67999999999998 8.5 l0 8.96 l2.88 0 c3.18 0 4.44 -2.32 4.38 -4.6 c-0.06 -2.18 -1.34 -4.36 -4.38 -4.36 l-2.88 0 z M175.73999999999998 17.4 l0 2.6 l-10.48 0 l0 -14 l10.48 0 l0 2.56 l-7.86 0 l0 3.22 l7.58 0 l0 2.46 l-7.58 0 l0 3.16 l7.86 0 z M191.42 6 l-5.82 14.06 l-2.74 0 l-5.82 -14.06 l2.96 0 l4.22 10.9 l4.24 -10.9 l2.96 0 z M203.47999999999996 17.4 l0 2.6 l-10.48 0 l0 -14 l10.48 0 l0 2.56 l-7.86 0 l0 3.22 l7.58 0 l0 2.46 l-7.58 0 l0 3.16 l7.86 0 z M205.51999999999995 6 l2.64 0 l0 11.56 l7.2 0 l0 2.44 l-9.84 0 l0 -14 z M223.37999999999997 5.720000000000001 c4.82 0 7.22 3.7 7.18 7.36 c-0.04 3.62 -2.26 7.24 -7.18 7.24 s-7.2 -3.54 -7.2 -7.22 s2.36 -7.38 7.2 -7.38 z M223.37999999999997 8.12 c-3.3 0 -4.66 2.66 -4.6 5.02 c0.06 2.3 1.3 4.76 4.6 4.76 s4.54 -2.48 4.58 -4.78 c0.04 -2.36 -1.28 -5 -4.58 -5 z M235.13999999999996 8.5 l0 4.96 l3.96 0 c3.38 0 3.36 -4.96 0 -4.96 l-3.96 0 z M239.09999999999997 5.98 c6.84 0 6.86 9.9 0 9.9 l-3.96 0 l0 4.12 l-2.64 0 l0 -14 c2.2 0 4.4 -0.02 6.6 -0.02 z M256.46 17.4 l0 2.6 l-10.48 0 l0 -14 l10.48 0 l0 2.56 l-7.86 0 l0 3.22 l7.58 0 l0 2.46 l-7.58 0 l0 3.16 l7.86 0 z M270.91999999999996 19.82 l0 0.18 l-3.14 0 l-4.08 -4.68 l-2.54 0 l0 4.68 l-2.64 0 l0 -14.02 c2.22 0 4.44 0.02 6.66 0.02 c3.3 0.02 5.04 2.22 5.04 4.64 c0 1.92 -0.88 3.86 -3.54 4.4 z M265.18 8.46 l-4.02 0 l0 4.48 l4.02 0 c1.68 0 2.4 -1.12 2.4 -2.24 s-0.74 -2.24 -2.4 -2.24 z M283.36 8.3 l-2.1 1.08 c-0.48 -0.8 -1.8 -1.56 -3.32 -1.56 c-1.96 0 -2.9 0.82 -2.9 1.86 c0 1.22 1.44 1.56 3.12 1.76 c2.92 0.36 5.64 1.12 5.64 4.46 c0 3.12 -2.76 4.46 -5.88 4.46 c-2.86 0 -5.06 -0.88 -6.1 -3.44 l2.2 -1.14 c0.62 1.54 2.24 2.22 3.94 2.22 c1.66 0 3.22 -0.58 3.22 -2.1 c0 -1.32 -1.38 -1.86 -3.24 -2.06 c-2.86 -0.34 -5.5 -1.1 -5.5 -4.24 c0 -2.88 2.84 -4.06 5.42 -4.08 c2.18 0 4.44 0.62 5.5 2.78 z M292.40000000000003 13.940000000000001 l0 3.6 l4.04 0 c1.08 0 2.62 -0.36 2.62 -1.68 c0 -1.26 -1.54 -1.92 -2.62 -1.92 l-4.04 0 z M292.40000000000003 8.4 l0 3.22 l4.04 0 c1.66 0 2.2 -0.7 2.2 -1.5 c0 -0.64 -0.52 -1.72 -2.2 -1.72 l-4.04 0 z M296.44000000000005 6 c2.76 0 4.82 1.24 4.82 4.06 c0 1.08 -0.52 2.12 -1.82 2.7 c1.64 0.5 2.24 2.24 2.24 3.12 c0 3.12 -2.34 4.12 -5.24 4.12 l-6.64 0 l0 -14 l6.64 0 z M313.20000000000005 6.02 l2.62 0 l0 8.02 c0 4.14 -2.54 6.26 -6.06 6.26 c-3.36 0 -6.22 -2.04 -6.22 -6.26 l0 -8.02 l2.62 0 l0 8.02 c0 2.52 1.44 3.86 3.62 3.86 s3.42 -1.46 3.42 -3.86 l0 -8.02 z M321.0400000000001 20 l-2.62 0 l0 -14 l2.62 0 l0 14 z M323.5200000000001 6 l2.64 0 l0 11.56 l7.2 0 l0 2.44 l-9.84 0 l0 -14 z M340.5400000000001 6 c4.8 0 6.94 3.42 7 6.88 c0.06 3.54 -2.1 7.12 -7 7.12 l-5.5 0 l0 -14 l5.5 0 z M337.6600000000001 8.5 l0 8.96 l2.88 0 c3.18 0 4.44 -2.32 4.38 -4.6 c-0.06 -2.18 -1.34 -4.36 -4.38 -4.36 l-2.88 0 z M352.1400000000001 20 l-2.62 0 l0 -14 l2.62 0 l0 14 z M363.8200000000001 14.68 l0 -8.7 l2.64 0 l0 14.02 l-1.64 0 l0 0.02 l-7.36 -9.46 l0 9.44 l-2.64 0 l0 -14 l2.14 0 z M380.9200000000001 7.74 l-1.64 1.68 c-0.94 -0.9 -2.34 -1.4 -3.56 -1.4 c-3 0 -4.82 2.28 -4.82 5.16 c0 2.3 1.34 4.68 4.82 4.68 c1.1 0 2.06 -0.24 3.16 -1.12 l0 -2.48 l-3.58 0 l0 -2.36 l6 0 l0 5.9 c-1.38 1.58 -3.12 2.52 -5.58 2.52 c-5.26 0 -7.4 -3.46 -7.4 -7.14 c0 -3.94 2.46 -7.58 7.4 -7.58 c1.88 0 3.76 0.72 5.2 2.14 z M390.0200000000001 13.940000000000001 l0 3.6 l4.04 0 c1.08 0 2.62 -0.36 2.62 -1.68 c0 -1.26 -1.54 -1.92 -2.62 -1.92 l-4.04 0 z M390.0200000000001 8.4 l0 3.22 l4.04 0 c1.66 0 2.2 -0.7 2.2 -1.5 c0 -0.64 -0.52 -1.72 -2.2 -1.72 l-4.04 0 z M394.0600000000001 6 c2.76 0 4.82 1.24 4.82 4.06 c0 1.08 -0.52 2.12 -1.82 2.7 c1.64 0.5 2.24 2.24 2.24 3.12 c0 3.12 -2.34 4.12 -5.24 4.12 l-6.64 0 l0 -14 l6.64 0 z M401.16000000000014 6 l2.64 0 l0 11.56 l7.2 0 l0 2.44 l-9.84 0 l0 -14 z M419.0200000000001 5.720000000000001 c4.82 0 7.22 3.7 7.18 7.36 c-0.04 3.62 -2.26 7.24 -7.18 7.24 s-7.2 -3.54 -7.2 -7.22 s2.36 -7.38 7.2 -7.38 z M419.0200000000001 8.12 c-3.3 0 -4.66 2.66 -4.6 5.02 c0.06 2.3 1.3 4.76 4.6 4.76 s4.54 -2.48 4.58 -4.78 c0.04 -2.36 -1.28 -5 -4.58 -5 z M438.68000000000006 16.42 l1.8 1.82 c-1.44 1.42 -3.3 2.08 -5.32 2.08 c-5.2 0 -7.4 -3.58 -7.42 -7.22 c-0.02 -3.66 2.36 -7.38 7.42 -7.38 c1.9 0 3.7 0.72 5.14 2.14 l-1.76 1.7 c-0.92 -0.9 -2.16 -1.32 -3.38 -1.32 c-3.38 0 -4.84 2.52 -4.82 4.86 c0.02 2.32 1.36 4.74 4.82 4.74 c1.22 0 2.6 -0.5 3.52 -1.42 z M453.2200000000001 6 l0 0.08 l-6.22 6.7 l6.74 7.06 l0 0.16 l-3.26 0 l-5.86 -6.2 l0 6.2 l-2.64 0 l0 -14 l2.64 0 l0 5.92 l5.32 -5.92 l3.28 0 z M465.62000000000006 16.42 l1.8 1.82 c-1.44 1.42 -3.3 2.08 -5.32 2.08 c-5.2 0 -7.4 -3.58 -7.42 -7.22 c-0.02 -3.66 2.36 -7.38 7.42 -7.38 c1.9 0 3.7 0.72 5.14 2.14 l-1.76 1.7 c-0.92 -0.9 -2.16 -1.32 -3.38 -1.32 c-3.38 0 -4.84 2.52 -4.82 4.86 c0.02 2.32 1.36 4.74 4.82 4.74 c1.22 0 2.6 -0.5 3.52 -1.42 z M481.06000000000006 20.02 l-2.62 0 l0 -5.66 l-6.88 0 l0 5.66 l-2.64 0 l0 -14 l2.64 0 l0 5.9 l6.88 0 l0 -5.9 l2.62 0 l0 14 z M494.6600000000001 20 l-1.18 -2.64 l-7.32 0 l-1.2 2.64 l-2.86 0 l6.28 -14 l2.88 0 l6.28 14 l-2.88 0 z M492.4200000000001 14.9 l-2.6 -5.96 l-2.6 5.96 l5.2 0 z M501.1600000000001 20 l-2.62 0 l0 -14 l2.62 0 l0 14 z M512.84 14.68 l0 -8.7 l2.64 0 l0 14.02 l-1.64 0 l0 0.02 l-7.36 -9.46 l0 9.44 l-2.64 0 l0 -14 l2.14 0 z M525.5600000000001 20 l0 -11.6 l-4.44 0 l0 -2.4 l11.52 0 l0 2.4 l-4.44 0 l0 11.6 l-2.64 0 z M540.8199999999999 5.720000000000001 c4.82 0 7.22 3.7 7.18 7.36 c-0.04 3.62 -2.26 7.24 -7.18 7.24 s-7.2 -3.54 -7.2 -7.22 s2.36 -7.38 7.2 -7.38 z M540.8199999999999 8.12 c-3.3 0 -4.66 2.66 -4.6 5.02 c0.06 2.3 1.3 4.76 4.6 4.76 s4.54 -2.48 4.58 -4.78 c0.04 -2.36 -1.28 -5 -4.58 -5 z M556.52 5.720000000000001 c4.82 0 7.22 3.7 7.18 7.36 c-0.04 3.62 -2.26 7.24 -7.18 7.24 s-7.2 -3.54 -7.2 -7.22 s2.36 -7.38 7.2 -7.38 z M556.52 8.12 c-3.3 0 -4.66 2.66 -4.6 5.02 c0.06 2.3 1.3 4.76 4.6 4.76 s4.54 -2.48 4.58 -4.78 c0.04 -2.36 -1.28 -5 -4.58 -5 z M565.6400000000001 6 l2.64 0 l0 11.56 l7.2 0 l0 2.44 l-9.84 0 l0 -14 z M588.0800000000002 8.3 l-2.1 1.08 c-0.48 -0.8 -1.8 -1.56 -3.32 -1.56 c-1.96 0 -2.9 0.82 -2.9 1.86 c0 1.22 1.44 1.56 3.12 1.76 c2.92 0.36 5.64 1.12 5.64 4.46 c0 3.12 -2.76 4.46 -5.88 4.46 c-2.86 0 -5.06 -0.88 -6.1 -3.44 l2.2 -1.14 c0.62 1.54 2.24 2.22 3.94 2.22 c1.66 0 3.22 -0.58 3.22 -2.1 c0 -1.32 -1.38 -1.86 -3.24 -2.06 c-2.86 -0.34 -5.5 -1.1 -5.5 -4.24 c0 -2.88 2.84 -4.06 5.42 -4.08 c2.18 0 4.44 0.62 5.5 2.78 z M593.2800000000002 18.96 c0 0.24 0.02 0.18 -0.9 3 l-1.38 0 l0.38 -1.98 c-0.56 -0.1 -0.94 -0.46 -0.94 -1.08 c0 -1.84 2.84 -1.76 2.84 0.06 z M619.7400000000001 6 l-5.04 14 l-2.24 0 l-1.74 -4.4 l-1.48 -4.42 l-1.46 4.46 l-1.7 4.36 l-2.24 0 l-5.14 -14 l2.96 0 l3.3 10.1 l3.4 -10.1 l1.72 0 l3.5 10.1 l3.2 -10.1 l2.96 0 z M632.4800000000001 20 l-1.18 -2.64 l-7.32 0 l-1.2 2.64 l-2.86 0 l6.28 -14 l2.88 0 l6.28 14 l-2.88 0 z M630.2400000000001 14.9 l-2.6 -5.96 l-2.6 5.96 l5.2 0 z M636.3400000000001 6 l2.64 0 l0 11.56 l7.2 0 l0 2.44 l-9.84 0 l0 -14 z M648.0400000000002 6 l2.64 0 l0 11.56 l7.2 0 l0 2.44 l-9.84 0 l0 -14 z M670.1800000000002 17.4 l0 2.6 l-10.48 0 l0 -14 l10.48 0 l0 2.56 l-7.86 0 l0 3.22 l7.58 0 l0 2.46 l-7.58 0 l0 3.16 l7.86 0 z M676.6600000000003 20 l0 -11.6 l-4.44 0 l0 -2.4 l11.52 0 l0 2.4 l-4.44 0 l0 11.6 l-2.64 0 z M696.0800000000003 8.3 l-2.1 1.08 c-0.48 -0.8 -1.8 -1.56 -3.32 -1.56 c-1.96 0 -2.9 0.82 -2.9 1.86 c0 1.22 1.44 1.56 3.12 1.76 c2.92 0.36 5.64 1.12 5.64 4.46 c0 3.12 -2.76 4.46 -5.88 4.46 c-2.86 0 -5.06 -0.88 -6.1 -3.44 l2.2 -1.14 c0.62 1.54 2.24 2.22 3.94 2.22 c1.66 0 3.22 -0.58 3.22 -2.1 c0 -1.32 -1.38 -1.86 -3.24 -2.06 c-2.86 -0.34 -5.5 -1.1 -5.5 -4.24 c0 -2.88 2.84 -4.06 5.42 -4.08 c2.18 0 4.44 0.62 5.5 2.78 z M701.2800000000003 18.96 c0 0.24 0.02 0.18 -0.9 3 l-1.38 0 l0.38 -1.98 c-0.56 -0.1 -0.94 -0.46 -0.94 -1.08 c0 -1.84 2.84 -1.76 2.84 0.06 z M714.1600000000002 5.720000000000001 c4.82 0 7.22 3.7 7.18 7.36 c-0.04 3.62 -2.26 7.24 -7.18 7.24 s-7.2 -3.54 -7.2 -7.22 s2.36 -7.38 7.2 -7.38 z M714.1600000000002 8.12 c-3.3 0 -4.66 2.66 -4.6 5.02 c0.06 2.3 1.3 4.76 4.6 4.76 s4.54 -2.48 4.58 -4.78 c0.04 -2.36 -1.28 -5 -4.58 -5 z M735.7000000000003 19.82 l0 0.18 l-3.14 0 l-4.08 -4.68 l-2.54 0 l0 4.68 l-2.64 0 l0 -14.02 c2.22 0 4.44 0.02 6.66 0.02 c3.3 0.02 5.04 2.22 5.04 4.64 c0 1.92 -0.88 3.86 -3.54 4.4 z M729.9600000000003 8.46 l-4.02 0 l0 4.48 l4.02 0 c1.68 0 2.4 -1.12 2.4 -2.24 s-0.74 -2.24 -2.4 -2.24 z M751.9400000000003 20 l-1.18 -2.64 l-7.32 0 l-1.2 2.64 l-2.86 0 l6.28 -14 l2.88 0 l6.28 14 l-2.88 0 z M749.7000000000003 14.9 l-2.6 -5.96 l-2.6 5.96 l5.2 0 z M765.0000000000002 14.68 l0 -8.7 l2.64 0 l0 14.02 l-1.64 0 l0 0.02 l-7.36 -9.46 l0 9.44 l-2.64 0 l0 -14 l2.14 0 z M781.1800000000003 20 l-1.18 -2.64 l-7.32 0 l-1.2 2.64 l-2.86 0 l6.28 -14 l2.88 0 l6.28 14 l-2.88 0 z M778.9400000000003 14.9 l-2.6 -5.96 l-2.6 5.96 l5.2 0 z M785.0400000000003 6 l2.64 0 l0 11.56 l7.2 0 l0 2.44 l-9.84 0 l0 -14 z M796.5800000000004 6 l3.56 5.78 l3.72 -5.78 l3.18 0 l0 0.12 l-5.58 8.1 l0 5.78 l-2.64 0 l0 -5.78 l-5.38 -8.1 l0 -0.12 l3.14 0 z M811.8200000000004 20 l0 -11.6 l-4.44 0 l0 -2.4 l11.52 0 l0 2.4 l-4.44 0 l0 11.6 l-2.64 0 z M823.1400000000003 20 l-2.62 0 l0 -14 l2.62 0 l0 14 z M836.1600000000003 16.42 l1.8 1.82 c-1.44 1.42 -3.3 2.08 -5.32 2.08 c-5.2 0 -7.4 -3.58 -7.42 -7.22 c-0.02 -3.66 2.36 -7.38 7.42 -7.38 c1.9 0 3.7 0.72 5.14 2.14 l-1.76 1.7 c-0.92 -0.9 -2.16 -1.32 -3.38 -1.32 c-3.38 0 -4.84 2.52 -4.82 4.86 c0.02 2.32 1.36 4.74 4.82 4.74 c1.22 0 2.6 -0.5 3.52 -1.42 z M850.4000000000004 8.3 l-2.1 1.08 c-0.48 -0.8 -1.8 -1.56 -3.32 -1.56 c-1.96 0 -2.9 0.82 -2.9 1.86 c0 1.22 1.44 1.56 3.12 1.76 c2.92 0.36 5.64 1.12 5.64 4.46 c0 3.12 -2.76 4.46 -5.88 4.46 c-2.86 0 -5.06 -0.88 -6.1 -3.44 l2.2 -1.14 c0.62 1.54 2.24 2.22 3.94 2.22 c1.66 0 3.22 -0.58 3.22 -2.1 c0 -1.32 -1.38 -1.86 -3.24 -2.06 c-2.86 -0.34 -5.5 -1.1 -5.5 -4.24 c0 -2.88 2.84 -4.06 5.42 -4.08 c2.18 0 4.44 0.62 5.5 2.78 z M859.5600000000004 8.5 l0 4.96 l3.96 0 c3.38 0 3.36 -4.96 0 -4.96 l-3.96 0 z M863.5200000000004 5.98 c6.84 0 6.86 9.9 0 9.9 l-3.96 0 l0 4.12 l-2.64 0 l0 -14 c2.2 0 4.4 -0.02 6.6 -0.02 z M870.4400000000004 6 l2.64 0 l0 11.56 l7.2 0 l0 2.44 l-9.84 0 l0 -14 z M893.2600000000004 20 l-1.18 -2.64 l-7.32 0 l-1.2 2.64 l-2.86 0 l6.28 -14 l2.88 0 l6.28 14 l-2.88 0 z M891.0200000000004 14.9 l-2.6 -5.96 l-2.6 5.96 l5.2 0 z M898.6600000000004 20 l0 -11.6 l-4.44 0 l0 -2.4 l11.52 0 l0 2.4 l-4.44 0 l0 11.6 l-2.64 0 z M909.9800000000004 20 l-2.64 0 l0 -13.98 l10.06 0 l0 2.54 l-7.42 0 l0 3.82 l7.02 0 l0 2.44 l-7.02 0 l0 5.18 z M926.2200000000003 5.720000000000001 c4.82 0 7.22 3.7 7.18 7.36 c-0.04 3.62 -2.26 7.24 -7.18 7.24 s-7.2 -3.54 -7.2 -7.22 s2.36 -7.38 7.2 -7.38 z M926.2200000000003 8.12 c-3.3 0 -4.66 2.66 -4.6 5.02 c0.06 2.3 1.3 4.76 4.6 4.76 s4.54 -2.48 4.58 -4.78 c0.04 -2.36 -1.28 -5 -4.58 -5 z M947.7600000000003 19.82 l0 0.18 l-3.14 0 l-4.08 -4.68 l-2.54 0 l0 4.68 l-2.64 0 l0 -14.02 c2.22 0 4.44 0.02 6.66 0.02 c3.3 0.02 5.04 2.22 5.04 4.64 c0 1.92 -0.88 3.86 -3.54 4.4 z M942.0200000000003 8.46 l-4.02 0 l0 4.48 l4.02 0 c1.68 0 2.4 -1.12 2.4 -2.24 s-0.74 -2.24 -2.4 -2.24 z M961.0400000000003 20.02 l0 -10.16 l-4.56 6.08 l-0.52 0 l-4.46 -6.1 l0 10.18 l-2.64 0 l0 -14 l3.04 0 l4.38 6.02 l4.38 -6.02 l3.02 0 l0 14 l-2.64 0 z M976.9000000000004 8.3 l-2.1 1.08 c-0.48 -0.8 -1.8 -1.56 -3.32 -1.56 c-1.96 0 -2.9 0.82 -2.9 1.86 c0 1.22 1.44 1.56 3.12 1.76 c2.92 0.36 5.64 1.12 5.64 4.46 c0 3.12 -2.76 4.46 -5.88 4.46 c-2.86 0 -5.06 -0.88 -6.1 -3.44 l2.2 -1.14 c0.62 1.54 2.24 2.22 3.94 2.22 c1.66 0 3.22 -0.58 3.22 -2.1 c0 -1.32 -1.38 -1.86 -3.24 -2.06 c-2.86 -0.34 -5.5 -1.1 -5.5 -4.24 c0 -2.88 2.84 -4.06 5.42 -4.08 c2.18 0 4.44 0.62 5.5 2.78 z M979.1400000000004 18.74 c0 -1.9 2.88 -1.9 2.88 0 s-2.88 1.9 -2.88 0 z"></path></g></svg>